<svg version="1.1" xmlns="http://www.w3.org/2000/svg" xmlns:xlink="http://www.w3.org/1999/xlink" width="275.27811" height="122.19796" viewBox="0,0,275.27811,122.19796"><g transform="translate(38.62613,-9.7706)"><g stroke-miterlimit="10"><g stroke="none" stroke-width="0" stroke-linecap="butt"><path d="M-28.16211,126.85918l-9.34668,-20.46679l210.12572,-95.95927l9.34668,20.46679z" fill="#ffd000"/><path d="M-28.86404,127.7294l-9.76209,-21.37643l30.47278,-13.91617l9.76209,21.37643z" fill="#000000"/><path d="M31.17188,100.31247l-9.76209,-21.37643l30.47278,-13.91617l9.76209,21.37643z" fill="#000000"/><path d="M96.21079,70.61079l-9.76209,-21.37643l30.47278,-13.91617l9.76209,21.37643z" fill="#000000"/><path d="M152.15335,45.06319l-9.76209,-21.37643l30.47278,-13.91617l9.76209,21.37643z" fill="#000000"/></g><g><path d="M180.21359,31.58426l-47.18422,66.71119" fill="none" stroke="#ffea00" stroke-width="6.5" stroke-linecap="round"/><path d="M231.97719,100.69915l-52.8088,-67.59615" fill="none" stroke="#ffea00" stroke-width="6.5" stroke-linecap="round"/><path d="M193.02474,32.10462c0.02282,7.73195 -6.22668,14.01843 -13.95863,14.04125c-7.73195,0.02282 -14.01843,-6.22668 -14.04125,-13.95863c-0.02282,-7.73195 6.22668,-14.01843 13.95863,-14.04125c7.73195,-0.02282 14.01843,6.22668 14.04125,13.95863z" fill="#8e4800" stroke="none" stroke-width="0" stroke-linecap="butt"/><path d="M126.31913,131.96855l-0.1141,-38.6665l110.33285,-0.32557l0.1141,38.6665z" fill="#ff9400" stroke="#ffea00" stroke-width="0" stroke-linecap="butt"/></g></g></g></svg>