<svg version="1.1" xmlns="http://www.w3.org/2000/svg" xmlns:xlink="http://www.w3.org/1999/xlink" width="71.7402" height="59.79644" viewBox="0,0,71.7402,59.79644"><g transform="translate(-195.8098,-121.8867)"><g stroke-miterlimit="10"><g stroke="#000000"><path d="M245.25462,177.61732l-36.93788,-37.16449l6.42563,-6.38646l36.93788,37.16449z" fill="#b75000" stroke-width="1.5"/><path d="M220.82387,126.98632c5.24305,5.27521 5.02259,13.99515 -0.49241,19.47651c-5.51499,5.48137 -14.23611,5.64849 -19.47917,0.37328c-5.24305,-5.27521 -5.02259,-13.99515 0.49241,-19.47651c5.51499,-5.48137 14.23611,-5.64849 19.47917,-0.37328z" fill="#e40000" stroke-width="2.5"/></g><path d="M266.55,174.56315c0,8.6733 -31.725,5.58613 -31.725,5.58613c0,0 -31.725,3.08717 -31.725,-5.58613c0,-8.6733 14.20377,-15.7044 31.725,-15.7044c16.65078,0 30.30552,6.34984 31.62117,14.42455c0.06878,0.42212 0.10383,0.84896 0.10383,1.27985z" fill="#8c8c8c" stroke="#000000" stroke-width="2"/><text transform="translate(206.18182,140.97523) scale(0.31543,0.31543)" font-size="40" xml:space="preserve" fill="#055bff" stroke="none" stroke-width="1" font-family="Pixel" font-weight="normal" text-anchor="start"><tspan x="0" dy="0">G</tspan></text></g></g></svg>