<svg version="1.1" xmlns="http://www.w3.org/2000/svg" xmlns:xlink="http://www.w3.org/1999/xlink" width="72.87706" height="59.46535" viewBox="0,0,72.87706,59.46535"><g transform="translate(-202.1,-122.21779)"><g stroke-miterlimit="10"><g stroke="#000000"><path d="M219.33483,171.76718l37.06793,-37.03478l6.40321,6.40894l-37.06793,37.03478z" fill="#b75000" stroke-width="1.5"/><path d="M269.90187,147.20432c-5.26151,5.25681 -13.98199,5.05911 -19.47773,-0.44156c-5.49575,-5.50066 -5.68564,-14.22132 -0.42413,-19.47813c5.26151,-5.25681 13.98199,-5.05911 19.47773,0.44156c5.49575,5.50066 5.68564,14.22132 0.42413,19.47813z" fill="#e40000" stroke-width="2.5"/></g><path d="M266.55,174.56315c0,8.6733 -31.725,5.58613 -31.725,5.58613c0,0 -31.725,3.08717 -31.725,-5.58613c0,-8.6733 14.20377,-15.7044 31.725,-15.7044c16.65078,0 30.30552,6.34984 31.62117,14.42455c0.06878,0.42212 0.10383,0.84896 0.10383,1.27985z" fill="#8c8c8c" stroke="#000000" stroke-width="2"/><text transform="translate(255.54545,140.24795) scale(0.31543,0.31543)" font-size="40" xml:space="preserve" fill="#055bff" stroke="none" stroke-width="1" font-family="Pixel" font-weight="normal" text-anchor="start"><tspan x="0" dy="0">G</tspan></text></g></g></svg>