<svg version="1.1" xmlns="http://www.w3.org/2000/svg" xmlns:xlink="http://www.w3.org/1999/xlink" width="227.31586" height="117.95881" viewBox="0,0,227.31586,117.95881"><g transform="translate(38.62613,-9.77059)"><g stroke="none" stroke-width="0" stroke-miterlimit="10"><path d="M-28.16211,126.85918l-9.34668,-20.46679l210.12572,-95.95927l9.34668,20.46679z" fill="#ffd000"/><path d="M-28.86404,127.7294l-9.76209,-21.37643l30.47278,-13.91617l9.76209,21.37643z" fill="#000000"/><path d="M31.17188,100.31247l-9.76209,-21.37643l30.47278,-13.91617l9.76209,21.37643z" fill="#000000"/><path d="M96.21079,70.61079l-9.76209,-21.37643l30.47278,-13.91617l9.76209,21.37643z" fill="#000000"/><path d="M152.15335,45.06319l-9.76209,-21.37643l30.47278,-13.91617l9.76209,21.37643z" fill="#000000"/><path d="M188.68972,31.93918c0,3.68701 -3.38368,6.67593 -7.55765,6.67593c-4.17398,0 -7.55765,-2.98891 -7.55765,-6.67593c0,-3.68701 3.38368,-6.67593 7.55765,-6.67593c4.17398,0 7.55765,2.98891 7.55765,6.67593z" fill="#969696"/><ellipse cx="325.13625" cy="79.363" transform="scale(0.5,0.5)" rx="0" ry="0" fill="#969696"/></g></g></svg>