<svg version="1.1" xmlns="http://www.w3.org/2000/svg" xmlns:xlink="http://www.w3.org/1999/xlink" width="39.61537" height="44.84615" viewBox="0,0,39.61537,44.84615"><g transform="translate(-255.19232,-157.57693)"><g stroke-miterlimit="10"><g><path d="M264.07692,201.92308v-34.07692h30.23077v34.07692z" fill="#7f7f7f" stroke="#000000" stroke-width="1"/><path d="M283,167.57693c0,5.79899 1.66525,2.96154 -4.34615,2.96154c-0.17446,0 -11.88643,-0.77319 -12.05888,-0.78102c-5.76974,-0.262 -10.90265,4.45017 -10.90265,-1.18052c0,-5.79899 4.87321,-10.5 10.88462,-10.5c6.01141,0 16.42308,3.70101 16.42308,9.5z" fill="#7f7f7f" stroke="#000000" stroke-width="1"/><path d="M274.54375,176.68032c0.09363,-0.01479 0.18595,-0.01157 0.27343,0.0071c0.22392,0.03864 0.51473,0.17561 0.5844,0.6167c0.06967,0.44109 -0.16477,0.66103 -0.36587,0.7668c-0.07746,0.04472 -0.16429,0.07624 -0.25793,0.09103c-0.07877,0.01244 -0.15661,0.01214 -0.23141,0.00061l-0.36556,0.00097c-1.1621,-0.42221 -2.54786,-0.65043 -3.72295,-0.19062c0,0 -0.70348,0.26003 -0.96351,-0.44345c-0.26003,-0.70348 0.44345,-0.96351 0.44345,-0.96351c1.49494,-0.52998 3.07737,-0.37025 4.56379,0.12225c0.01389,-0.003 0.02794,-0.00563 0.04216,-0.00788z" fill="#000000" stroke="none" stroke-width="0.5"/><path d="M287.21154,177.46154c0,0.75 -0.75,0.75 -0.75,0.75h-0.07828c-1.80447,-0.0036 -3.68292,-0.0529 -5.45343,-0.39918c0,0 -0.73544,-0.14709 -0.58835,-0.88252c0.14709,-0.73544 0.88252,-0.58835 0.88252,-0.58835c1.66569,0.34205 3.46127,0.36732 5.16196,0.37005h0.07557c0,0 0.75,0 0.75,0.75z" fill="#000000" stroke="none" stroke-width="0.5"/><path d="M289.69231,189.3077c0,5.31043 -4.92487,9.61538 -11,9.61538c-6.07513,0 -11,-4.30495 -11,-9.61538c0,-5.31043 4.92487,-9.61538 11,-9.61538c6.07513,0 11,4.30495 11,9.61538z" fill="#000000" stroke="#000000" stroke-width="1"/></g></g></g></svg>