<svg version="1.1" xmlns="http://www.w3.org/2000/svg" xmlns:xlink="http://www.w3.org/1999/xlink" width="52.33924" height="30.48878" viewBox="0,0,52.33924,30.48878"><g transform="translate(-218.61661,-171.67411)"><g stroke="none" stroke-width="0.5" stroke-miterlimit="10"><g><path d="M224.3976,195.94542c0.01142,0.58901 1.13547,2.0113 2.24794,1.58883c0.72055,-0.27364 -0.24865,-2.97837 -0.34134,-5.15278l-0.34518,0.02465l-0.49722,0.05918l-0.86756,0.13768l-0.02149,-0.00041l-0.01942,0.00657l-0.30975,0.04424c-0.02165,0.03662 -0.04542,0.07245 -0.07119,0.1074c0.2755,1.02614 0.20634,2.21079 0.22522,3.18463zM227.30466,200.35127c-3.54065,0.25877 -6.81688,-1.82517 -6.83797,-4.3061c-0.0125,-1.46991 -1.45086,-3.63804 0.00294,-4.51619c-0.00195,-0.02564 -0.00294,-0.05146 -0.00294,-0.07745c0,-0.22201 0.07218,-0.43199 0.20069,-0.61861l-0.87392,-0.35663l-0.09515,-0.2718l-0.02464,-0.016l-0.2042,-0.21874l-0.04177,-0.08353l-0.08083,-0.06735l-0.1021,-0.14583l-0.04696,-0.1509l-0.10186,-0.13639l-0.1021,-0.29166v-0.03422l-0.02052,-0.03093l-0.05048,-0.18026l-0.02914,-0.04162l-0.01917,-0.00782l-0.01369,-0.03911l-0.02449,-0.03498l-0.09797,-0.31483l-0.10953,-0.31289v-0.03911l-0.01225,-0.03935l0.01225,-0.01312v-1.73129l0.03431,-0.09801l-0.01456,-0.10049l0.19708,-0.9852l0.09754,-0.76624l0.04209,-0.08617l-0.00336,-0.09123l0.2042,-0.65624l0.02682,-0.03831l0.002,-0.04281l0.1881,-0.47015l0.19149,-0.61537l0.03269,-0.04669l0.00339,-0.05215l0.29318,-0.6979l0.29523,-0.84333l0.1232,-0.16497l0.0687,-0.18041l1.30118,-1.65933l0.03844,-0.10982l0.14501,-0.19417l0.09506,-0.20932l0.51051,-0.58332l0.16149,-0.11121l0.11542,-0.13738l0.51051,-0.36457l0.1213,-0.05198l0.08921,-0.07841l0.18378,-0.09844l0.44414,-0.4229l0.24135,-0.14004l0.2039,-0.16768l1.02101,-0.51041l0.02144,-0.00586l0.01544,-0.01213l1.22522,-0.58332l0.19361,-0.04938l0.16667,-0.08596l1.50927,-0.43113l2.12211,-0.6495l0.17922,-0.02064l0.16209,-0.05837l3.12821,-0.50445l3.02646,-0.57635l0.09562,-0.00107l0.08769,-0.02723l3.05184,-0.36324l2.84765,-0.36315l0.114,0.00557l0.1089,-0.02469l1.63363,-0.07292l0.09378,0.01237l0.09322,-0.01434l6.22819,0.14583l0.3278,0.06675l0.33774,0.03289l0.40316,0.11516l2.543,0.48894l0.1281,0.05093l0.14461,0.01721l2.34833,0.72915l0.11396,0.06252l0.13689,0.03124l2.13253,0.94277l2.03032,0.86996l0.13498,0.0964l0.16862,0.0639l0.9932,0.63835l1.80908,1.07661l0.06983,0.06824l0.09976,0.04548l3.57355,2.69785l0.10011,0.12703l0.14594,0.10191l0.81681,0.9479l0.10479,0.23633l0.1486,0.22403l0.4084,1.4583l-0.00931,0.13964l0.04748,0.13563v2.11453l-0.03208,0.09164l0.01484,0.09386l-0.40841,2.18745l-0.02402,0.04327l0.0031,0.04649l-0.26814,0.95744v0.59016l-0.01918,0.05479l0.02978,0.04253l-0.1489,0.29775l-0.10738,0.30673l-0.05782,0.0236l-0.00834,0.01668l-0.03263,0.1165l-0.34427,0.51904c0.34859,1.11146 -0.02065,2.5927 -0.02596,3.07018c-0.03171,2.85369 0.14234,6.60467 -4.2455,7.92405c-6.86753,2.06501 -6.24377,-4.80509 -6.15982,-7.5804c0.02798,-0.92503 -2.53733,-2.4578 -2.09691,-3.24202h-4.37003l-0.02647,-0.00472l-0.02663,0.00421l-3.75121,-0.0724h-8.27307l-2.54216,0.13448l-0.77982,0.12376l-0.15144,-0.00285l-0.14419,0.03316l-1.53152,0.07292l-0.06584,-0.00848l-0.0649,0.01159h-0.31038l-1.57897,0.11276l-0.02438,0.00622l-0.22148,0.10065l-0.7864,0.1872l-0.28347,0.10122l-0.33767,0.05359l-0.32426,0.08601l-0.8884,0.07049l-0.11085,0.01131c0.16382,2.41717 1.73307,8.01568 -3.12601,8.37081zM263.7753,187.28225c-0.04399,0.23023 -0.10337,0.58033 -0.19892,0.9723l0.00048,0.0001l0.14955,-0.00697l0.94875,0.12319h0.12908l0.12833,0.02291l0.13144,-0.0106l1.29111,0.12294l-0.00671,-0.10063l0.2938,-1.04908l0.38274,-2.04998v-1.88239l-0.30124,-1.07564l-0.239,-0.27736c-0.77501,1.69779 -2.39051,3.54232 -2.70941,5.2112zM262.02527,181.85528c0.05304,-0.08126 0.69584,-1.37669 1.28801,-2.29487l-0.46941,-0.35438l-1.74832,-1.04045l-0.02265,-0.02214l-0.03391,-0.01285l-0.27474,-0.17659c-0.46682,0.67355 -1.57147,1.34428 -2.10771,1.78182c-1.54733,1.26255 -3.49401,2.20234 -4.64439,3.73746c-1.18116,1.5762 -2.1458,2.89485 -2.52044,4.6559l1.18901,0.02295h6.76207c0.24918,-2.2645 1.92939,-5.2964 2.58248,-6.29685zM247.65108,187.8178c-0.69673,-3.53718 6.91315,-9.64194 9.97279,-11.34784l-1.39107,-0.61497l-2.08533,-0.64749l-2.51477,-0.48351l-0.10261,-0.0408l-0.11637,-0.01133l-0.18999,-0.05427l-0.6903,-0.01616c-0.02002,0.30819 -0.17922,0.59041 -0.43373,0.81536c0.04255,3.03813 -3.86657,7.76648 -4.73296,10.11898c-0.22345,0.60674 -0.26569,1.65034 -0.54381,2.54346h2.72854c0.02152,-0.09038 0.05513,-0.17781 0.09961,-0.26142zM240.98908,186.63914c0.23767,-3.26812 2.90345,-7.06266 4.65632,-10.08478c0.13924,-0.24006 0.55723,-1.29288 0.89461,-2.04645l-1.10588,-0.02589l-1.42796,0.06374l-2.74815,0.35046l-0.01167,-0.00057l-0.01072,0.00333l-2.44014,0.29044c-0.42315,1.68373 -1.59926,3.85696 -1.72256,4.13568c-0.51143,1.15606 -0.50964,2.52841 -0.75905,3.72778c-0.34871,1.67692 0.05213,3.66226 -0.09765,5.34404l0.33206,-0.01581l0.77271,-0.12263l0.1442,0.00271l0.13698,-0.0323l2.75674,-0.14583l0.07316,0.00903l0.07203,-0.01286h0.37312c-0.01685,-0.50586 0.08244,-1.03558 0.11186,-1.44007zM232.42105,188.64767c-1.03147,-3.34076 -0.00471,-9.44614 1.75033,-12.64719l-1.94146,0.31307l-1.97854,0.60555l-0.02432,0.0028l-0.01996,0.01029l-1.34151,0.38321l-1.03636,0.49341l-0.7457,0.37278l-0.42437,0.40408l-0.21688,0.12584l-0.17621,0.15488l-0.29666,0.15889l-0.25346,0.18101l-0.22717,0.25957l-0.02673,0.07636l-0.12321,0.16497l-0.0687,0.18042l-1.30118,1.65933l-0.24264,0.69314l-0.02203,0.0295l-0.00218,0.0334l-0.28574,0.6802l-0.18868,0.60634l-0.02682,0.03831l-0.002,0.04281l-0.1881,0.47015l-0.16416,0.52755l-0.0907,0.71247l-0.01699,0.03478l0.00531,0.03664l-0.18445,0.92206v1.39766l0.05366,0.17242l0.11238,0.16943l0.09293,0.33182l0.02679,0.07653l0.05749,0.04105l0.19949,0.23745l0.13049,0.05325l0.06125,0.17497l0.12993,0.15465l-0.03954,0.10355l0.09404,0.26864v0.21874l-0.04618,0.13192l0.3294,-0.04705l0.8985,-0.14259l0.05385,0.00101l0.0494,-0.01534l0.6126,-0.07292l0.06561,0.00375l0.06195,-0.01588l0.97972,-0.06996l3.53246,-0.36038l0.03136,0.00232l0.02955,-0.00784l0.57051,-0.04527l0.09488,-0.03388l0.1381,-0.02192l0.11935,-0.05424l0.66921,-0.15931l0.01762,-0.00839l0.01095,-0.01753l0.05607,-0.01438l0.00266,-0.00127l0.44747,-0.11413l0.20817,-0.05337c0.00303,-0.00341 0.00609,-0.0068 0.00916,-0.01019z" fill="#000000"/><path d="M261.93043,192.31001c0.25967,-0.23792 -0.69451,-0.71668 -0.69451,-1.0417c0,-0.10951 -0.01658,-0.21636 -0.0498,-0.31866l1.98158,0.0388l0.98725,0.12737l0.18,-0.00809l0.17508,0.0312l0.17752,0.00028l0.61575,0.05936c-0.37909,2.63415 1.95531,7.40861 -1.28529,7.93057c-3.69651,0.5954 -1.41154,-3.80894 -2.08759,-6.81914z" fill="#f1f1f1"/><path d="M224.14988,192.72404c0.02578,-0.03496 0.05139,-0.07133 0.07304,-0.10795l0.31449,-0.04541l0.01976,-0.00664l0.0218,0.00034l0.88157,-0.13918l0.50491,-0.05893l0.35022,-0.02407c0.09269,2.17441 1.0671,4.95671 0.34655,5.23034c-1.11247,0.42248 -2.28982,-1.00772 -2.30124,-1.59673c-0.01887,-0.97384 0.06441,-2.22563 -0.21109,-3.25177z" fill="#f1f1f1"/><path d="M247.5311,188.11659l-2.7397,-0.00418c0.27812,-0.89312 0.31223,-1.9415 0.53568,-2.54825c0.86638,-2.35251 4.80762,-7.14899 4.76507,-10.18712c0.25451,-0.22495 0.41715,-0.50743 0.43717,-0.81562l0.6944,0.01606l0.19113,0.05428l0.11707,0.01135l0.10325,0.04081l2.53039,0.48561l2.0979,0.65186l1.39883,0.61933c-3.05963,1.70591 -10.72853,7.87722 -10.03179,11.4144c-0.04448,0.08361 -0.07788,0.1711 -0.0994,0.26148z" fill="#ffb900"/><path d="M266.49898,182.03226l0.24307,0.27824l0.31384,1.08008l0.0252,1.91643l-0.41528,2.08579l-0.3043,1.05169l0.0064,0.10069l-1.30698,-0.12194l-0.13311,0.01051l-0.13,-0.02303l-0.13072,-0.00015l-0.96064,-0.12539l-0.15113,0.00652l-0.00049,-0.0001c0.09554,-0.39198 0.14953,-0.74392 0.19352,-0.97415c0.3189,-1.66888 1.97561,-3.58739 2.75061,-5.28518z" fill="#ffb900"/><path d="M259.45823,188.19069l-6.80848,-0.00511l-1.19394,-0.02557c0.37464,-1.76104 1.31985,-3.10368 2.50101,-4.67988c1.15038,-1.53513 3.16702,-2.52049 4.71435,-3.78304c0.53623,-0.43754 1.65018,-1.10583 2.11699,-1.77938l0.27702,0.1774l0.03416,0.01295l0.02287,0.02222l1.76155,1.04753l0.47277,0.35703c-0.59216,0.91817 -1.22544,2.2255 -1.27848,2.30676c-0.65309,1.00045 -2.37065,4.08458 -2.61983,6.34909z" fill="#ffb900"/><path d="M240.87435,188.11926l-0.37536,-0.00011l-0.07245,0.01283l-0.0736,-0.00906l-2.77138,0.14326l-0.13754,0.03214l-0.14487,-0.00291l-0.77576,0.12164l-0.33337,0.01533c0.14978,-1.68178 -0.2761,-3.68618 0.07261,-5.3631c0.2494,-1.19937 0.25267,-2.61094 0.76411,-3.767c0.1233,-0.27872 1.32984,-2.46763 1.75299,-4.15136l2.45518,-0.29204l0.01079,-0.00333l0.01174,0.00057l2.76362,-0.34903l1.43478,-0.06206l1.11064,0.02751c-0.33737,0.75357 -0.75199,1.80779 -0.89123,2.04785c-1.75288,3.02212 -4.4513,6.89069 -4.68896,10.15881c-0.02941,0.40449 -0.12878,0.93421 -0.11193,1.44007z" fill="#ffb900"/><path d="M232.43726,188.69364l-0.20941,0.0538l-0.45019,0.11499l-0.00268,0.00127l-0.05642,0.01448l-0.01106,0.01757l-0.01774,0.00842l-0.6734,0.16036l-0.12017,0.05442l-0.13895,0.02209l-0.0955,0.034l-0.57402,0.04585l-0.02974,0.00786l-0.03155,-0.00229l-3.55411,0.36027l-0.98496,0.06901l-0.06223,0.01581l-0.06595,-0.00383l-0.61551,0.07219l-0.0496,0.01529l-0.05411,-0.00109l-0.90218,0.14146l-0.33065,0.04661l0.04599,-0.13199l-0.00067,-0.21899l-0.0953,-0.26913l0.03937,-0.10362l-0.13101,-0.1551l-0.06213,-0.17535l-0.13122,-0.05358l-0.20119,-0.23826l-0.05788,-0.04125l-0.02719,-0.07673l-0.09463,-0.33274l-0.11351,-0.17008l-0.05459,-0.17299l-0.00669,-1.40253l0.18009,-0.92639l-0.00551,-0.03688l0.01685,-0.03495l0.08723,-0.71725l0.16202,-0.53166l0.18661,-0.47439l0.00188,-0.04325l0.02673,-0.03867l0.18786,-0.61286l0.28678,-0.68822l0.00228,-0.03378l0.02214,-0.02987l0.24629,-0.70109l1.31958,-1.67547l0.07042,-0.18126l0.12515,-0.16586l0.0274,-0.07665l0.23036,-0.26082l0.25635,-0.18197l0.29975,-0.15978l0.17826,-0.15538l0.21909,-0.12632l0.42888,-0.40484l0.75212,-0.37338l1.04408,-0.49343l1.34995,-0.38237l0.02007,-0.01028l0.02446,-0.00278l1.98786,-0.60344l1.94866,-0.31049c-1.75503,3.20105 -2.7851,9.37662 -1.75363,12.71738c-0.00307,0.00339 -0.00621,0.00681 -0.00924,0.01022z" fill="#ffb900"/></g></g></g></svg>