<svg version="1.1" xmlns="http://www.w3.org/2000/svg" xmlns:xlink="http://www.w3.org/1999/xlink" width="258.42658" height="143.2722" viewBox="0,0,258.42658,143.2722"><g transform="translate(-75.16666,-106.81113)"><g stroke-miterlimit="10"><path d="M147.5,219.83334c0,15.04976 -13.2076,27.25 -29.5,27.25c-16.2924,0 -29.5,-12.20024 -29.5,-27.25c0,-15.04976 13.2076,-27.25 29.5,-27.25c16.2924,0 29.5,12.20024 29.5,27.25z" fill="#3d3d3d" stroke="#000000" stroke-width="2"/><path d="M316,221.83334c0,15.04976 -13.2076,27.25 -29.5,27.25c-16.2924,0 -29.5,-12.20024 -29.5,-27.25c0,-15.04976 13.2076,-27.25 29.5,-27.25c16.2924,0 29.5,12.20024 29.5,27.25z" fill="#3d3d3d" stroke="#000000" stroke-width="2"/><path d="M76.5,207.5v-98.5h182.5l-0.25,99.25z" fill="#5989bf" stroke="#000000" stroke-width="2"/><path d="M258.75,207.66667c0,0 -35,0.71005 -35,-4.52777c0,-3.18233 23.53586,-5.72436 26.30076,-13.17177c9.47538,-25.52244 8.69924,-71.05045 8.69924,-71.05045l50.69707,0.68199l20.30293,43.31801l2.75,44.75z" fill="#ffffff" stroke="#000000" stroke-width="2"/><path d="M153.25,220.08334c0,15.04976 -13.2076,27.25 -29.5,27.25c-16.2924,0 -29.5,-12.20024 -29.5,-27.25c0,-15.04976 13.2076,-27.25 29.5,-27.25c16.2924,0 29.5,12.20024 29.5,27.25z" fill="#7b7b7b" stroke="#000000" stroke-width="2"/><path d="M322.25,221.83334c0,15.04976 -13.2076,27.25 -29.5,27.25c-16.2924,0 -29.5,-12.20024 -29.5,-27.25c0,-15.04976 13.2076,-27.25 29.5,-27.25c16.2924,0 29.5,12.20024 29.5,27.25z" fill="#7b7b7b" stroke="#000000" stroke-width="2"/><path d="M299.75,164.58974l-0.25,-35l13.09616,-1.46153l16.15384,35.96154z" fill="#00f2ff" stroke="#000000" stroke-width="1"/><path d="M305.80357,188.41667v-11.5h22.94643l1.69231,11.11538z" fill="#fff700" stroke="#000000" stroke-width="1"/><path d="M267.30357,179.16667v-5.75h11.69643v5.75z" fill="#949494" stroke="#000000" stroke-width="1"/><path d="M268.05357,164.66667v-34.5h24.69643v34.5z" fill="#00f2ff" stroke="#000000" stroke-width="1"/><path d="M318,207.4569c0,0 -5.79618,-7.98405 -11.97235,-11.78588c-5.08488,-3.13007 -10.58842,-1.82 -11.92998,-4.80715c-2.8494,-6.34458 5.92156,-25.11387 5.92156,-25.11387l28.73077,-0.87069l3.75,42.87069z" fill="none" stroke="#000000" stroke-width="2"/><path d="M76.16666,122.63889v-13.5h182.25v13.5z" fill="#276ebf" stroke="#000000" stroke-width="2"/><text transform="translate(128.66667,119.96199) scale(0.25702,0.25702)" font-size="40" xml:space="preserve" fill="#fff833" stroke="none" stroke-width="1" font-family="Pixel" font-weight="normal" text-anchor="start"><tspan x="0" dy="0">BuilderBlocks</tspan></text></g></g></svg>