<svg version="1.1" xmlns="http://www.w3.org/2000/svg" xmlns:xlink="http://www.w3.org/1999/xlink" width="134.46687" height="279.09153" viewBox="0,0,134.46687,279.09153"><g transform="translate(-90.44767,-61.58791)"><g stroke-miterlimit="10"><g stroke="none" stroke-width="0.5"><path d="M194.59366,196.03387c2.70914,-0.4436 5.29292,-0.9357 8.02625,-1.09108c0.06966,-0.09844 0.15224,-0.19756 0.24935,-0.29684c1.31271,-1.34214 2.65485,-0.02943 2.65485,-0.02943l1.19821,1.49007c3.96668,12.87175 4.33794,25.84328 7.07096,38.76216c1.22201,5.82697 0.3286,11.33793 0.76653,17.12945c0.14521,1.9204 1.67499,4.21998 -0.74466,5.95214c-1.73685,1.24336 -4.15655,0.17818 -5.55812,-1.47528c0.07545,0.94259 -0.01085,1.82466 -0.42028,2.22294c-2.56498,2.49514 -6.93118,-0.17598 -7.38515,-2.66944c-8.08638,-1.00545 -8.04431,-9.23149 -7.53877,-16.26022c2.68282,-12.55856 -4.02551,-29.2344 -6.72338,-41.98711c0,0 -0.38856,-1.83673 1.44816,-2.22529c1.83673,-0.38856 2.22529,1.44817 2.22529,1.44817c0.00962,0.04549 0.01929,0.09101 0.02901,0.13658c1.14879,-1.65502 2.86309,-0.80576 4.70174,-1.10683zM194.80265,197.51925c-1.78987,0.28588 -3.21878,-0.57249 -4.24775,1.03424l-0.34415,0.02892c2.96615,12.97577 9.08703,29.12692 6.42021,41.70908c-0.31756,4.69775 0.41934,7.93293 2.0559,11.79784c0.14308,-0.71306 0.69609,-1.30811 1.45278,-1.46819c0.77241,-0.16341 1.53432,0.17354 1.94862,0.79144l1.19438,1.69668l-0.01851,0.01303c0.02812,0.02853 0.05606,0.05727 0.08379,0.08624c0.31028,0.32411 0.73648,0.99563 1.09952,1.63949c-0.43912,-2.00806 -0.0687,-5.04212 2.20973,-5.0313c1.75921,0.00836 2.5781,2.39436 3.8653,3.59354c0.12619,0.11756 0.30923,0.31193 0.49675,0.52323c-0.39736,-1.22169 -0.04896,-3.01013 -0.11661,-3.90481c-0.36782,-4.86434 0.26374,-9.4838 -0.7828,-14.3828c-2.71112,-12.81534 -3.04659,-25.66928 -6.98552,-38.43278l-0.23561,0.08769c0,0 -0.34296,-0.33544 -0.51258,-0.84055c-2.57447,0.17294 -5.01287,0.64843 -7.58346,1.059z" fill="#000000"/><path d="M202.38915,196.41034c0.16962,0.50511 0.51356,0.84063 0.51356,0.84063l0.23601,-0.08766c3.93893,12.7635 4.30455,25.70336 7.01567,38.5187c1.04654,4.899 0.3999,9.52839 0.76772,14.39273c0.06765,0.89468 -0.28293,2.68399 0.11443,3.90568c-0.18751,-0.21131 -0.37101,-0.40551 -0.4972,-0.52307c-1.28721,-1.19917 -2.11078,-3.58375 -3.86999,-3.59212c-2.27844,-0.01083 -2.65449,3.02431 -2.21537,5.03237c-0.36304,-0.64386 -0.79081,-1.31519 -1.10109,-1.6393c-0.02773,-0.02896 -0.0558,-0.05769 -0.08393,-0.08622l0.01854,-0.01304l-1.19635,-1.69653c-0.4143,-0.61791 -1.18003,-0.95478 -1.95244,-0.79137c-0.75669,0.16008 -1.31239,0.755 -1.45547,1.46806c-1.63656,-3.86491 -2.38298,-7.10172 -2.06542,-11.79947c2.66682,-12.58216 -3.45882,-28.82824 -6.42497,-41.80401l0.34469,-0.02913c1.02897,-1.60673 2.46515,-0.75045 4.25502,-1.03633c2.57059,-0.41057 5.02211,-0.88699 7.59658,-1.05993z" fill="#ff6f00"/></g><path d="M124.52546,254.06698c14.3227,0.19285 32.09033,-0.71125 46.48264,-1.1406c1.9572,-0.05838 16.77407,0.12065 17.39023,-1.38349c1.27129,-3.10341 0.95093,-12.47992 1.212,-16.13494c-0.00895,-15.15321 -0.41285,-40.61844 -7.36668,-54.59457c-2.90353,-5.83564 -19.23966,-7.95235 -25.9668,-4.8832c-7.27828,3.32059 -15.43525,5.66075 -19.09502,12.65618c-9.11599,18.16187 -14.88141,39.05112 -14.88141,59.74942zM120.26648,255.06324c-0.19111,-0.64916 -0.19113,-1.16486 -0.19113,-1.16486v-2.50317c0,-21.94872 3.04879,-42.5029 12.65351,-61.7935c0.3534,-0.66224 0.36137,-1.59559 0.59321,-2.24249c2.68459,-7.49052 2.82279,-13.30896 11.18421,-16.53005c10.62445,-4.09286 38.55644,-0.68317 43.28763,8.74518c7.64174,15.2285 6.549,41.77762 6.53983,58.32631c-0.28927,4.04979 1.20947,14.46872 -1.01304,17.79694c-4.01057,6.00586 -11.44482,4.49054 -17.43472,5.00098c-17.49023,1.49044 -34.62737,-0.5789 -52.05588,-0.54228c0,0 -3.75476,0 -3.75476,-3.75476c0,-0.513 0.0701,-0.95593 0.19113,-1.33832z" fill="#000000" stroke="#000000" stroke-width="0"/><path d="M122.26525,248.37134c0,-20.69831 5.7711,-41.66349 14.88709,-59.82536c3.65976,-6.99543 11.84664,-9.34519 19.12492,-12.66578c6.72714,-3.06915 23.09372,-0.94179 25.99724,4.89386c6.95383,13.97614 7.36923,39.50725 7.37817,54.66046c-0.26107,3.65502 0.04978,13.04267 -1.22151,16.14608c-0.61615,1.50414 -15.44772,1.334 -17.40492,1.39238c-14.39231,0.42935 -32.2091,1.32608 -46.5318,1.13323z" fill="#00ffa7" stroke="none" stroke-width="0.5"/><path d="M127.76549,156.62079c0.66654,1.5541 1.58833,3.29923 2.55622,4.68831c-1.24875,-1.00525 -2.71641,-2.21179 -3.92737,-3.27109c0.38352,-0.41232 0.846,-0.88823 1.21639,-1.2669c0.04778,-0.04892 0.10698,-0.10133 0.15476,-0.15032z" fill="#ff6f00" stroke="none" stroke-width="0.5"/><g stroke="none" stroke-width="0.5"><path d="M167.35682,84.24165c0.39337,-0.08467 0.78645,-0.1734 1.17915,-0.2661c0.33284,-0.05966 0.67273,-0.11242 1.02224,-0.15081h0.90818c0.33806,0 0.62341,-0.22568 0.71359,-0.53461c6.46825,-1.82615 12.75991,-4.6957 18.36633,-8.24836c2.57617,-1.63246 10.05623,-11.07322 12.73035,-9.91133c3.44437,1.49656 4.05828,6.39325 5.32416,9.92891c1.79148,5.00367 -0.35642,12.90585 -0.96436,17.93614c-0.65362,5.40824 0.02786,11.44017 0.02786,16.88921c0,1.48657 0,2.97313 0,4.4597v2.97314c0,0 -0.00002,3.40197 -3.25489,3.69617c0.98227,5.32493 2.11781,11.03866 1.75422,15.9524c-0.03067,0.41456 -0.06826,0.83434 -0.11265,1.25887c4.78831,-0.14515 9.56143,-0.37212 14.34759,-0.41575l0.05829,-0.16144c0,0 0.63286,-0.38982 1.02268,0.24304c0.38982,0.63286 -0.24304,1.02267 -0.24304,1.02267l-0.82437,0.38224c-4.85069,0.04421 -9.68871,0.27653 -14.54243,0.42138c-0.38,2.75461 -1.02823,5.68121 -1.91878,8.67256c6.88823,0.25256 13.68672,1.58865 20.5446,1.5808h0.67572c0,0 0.74328,0 0.74328,0.74329c0,0.74328 -0.74328,0.74328 -0.74328,0.74328h-0.67572c-7.01551,-0.00751 -13.95458,-1.39021 -21.00047,-1.59617c-1.0707,3.32539 -2.43204,6.70842 -4.04901,10.00442c5.13696,1.9202 10.50499,2.98651 15.88531,4.17758l0.63521,0.47041c0,0 0.52558,0.52559 0,1.05117c-0.52558,0.52558 -1.05116,0 -1.05116,0l0.09463,-0.07015c-5.50364,-1.21838 -10.98485,-2.32109 -16.23397,-4.29688c-5.84769,11.34447 -14.71561,21.40593 -25.14258,24.14298c-14.94335,3.9226 -31.60526,-2.89103 -44.50782,-9.3795c-2.30622,-1.77791 -4.57918,-3.61494 -6.7576,-5.54163c-1.16457,1.0383 -2.37392,1.94623 -3.62705,2.58211l0.06213,0.20817c0,0 -0.33241,0.66482 -0.99722,0.33241c-0.66481,-0.33241 -0.33241,-0.99722 -0.33241,-0.99722l0.6027,-0.87299c1.09689,-0.53876 2.16663,-1.32211 3.203,-2.23058c-3.88832,-3.5488 -7.4322,-7.40911 -10.26669,-11.76302c-1.45568,0.61237 -2.91479,1.13289 -4.37193,1.48467c-0.08744,0.19561 -0.27268,0.40278 -0.66511,0.40278c-0.74328,0 -0.74328,-0.74329 -0.74328,-0.74329l0.59096,-0.9978c1.46085,-0.29883 2.9322,-0.79306 4.40404,-1.3958c-1.94357,-3.20615 -3.5008,-6.67759 -4.53504,-10.48243c-0.03804,-0.13993 -0.0753,-0.28022 -0.11176,-0.42085c-3.41963,0.57315 -6.7987,1.25747 -10.0659,2.33432c-0.92648,0.05469 -1.85491,0.08339 -2.78299,0.08359h-0.54058c0,0 -0.74328,0 -0.74328,-0.74328c0,-0.74328 0.74328,-0.74329 0.74328,-0.74329h0.54058c0.83522,0.00018 1.67078,-0.0164 2.505,-0.05737c3.23373,-1.09094 6.58845,-1.78868 9.98874,-2.36792c-1.34202,-6.19627 -1.20355,-12.93811 0.41639,-19.0623c-1.04609,-1.10022 -1.0461,-2.69643 -1.0461,-2.69643c0.02519,-14.72069 1.84276,-30.8829 5.55426,-44.97251c0.7147,-2.71315 3.6342,-14.49123 6.79433,-15.50228c6.04534,-1.93411 17.3095,10.03379 21.4963,13.51823c4.23272,3.62827 10.25597,5.92656 15.65504,7.26145l3.74616,1.59258c0,0 2.70994,1.1614 2.26797,3.829c0.48961,0.02517 0.9786,0.05604 1.46676,0.09258c0.02381,-0.31225 0.08332,-0.59475 0.17008,-0.85023c0.1305,0.1135 0.301,0.18222 0.48754,0.18222c0.32251,0 0.59704,-0.20539 0.69992,-0.49251l0.38365,-0.99686c0.04826,-0.11273 0.09347,-0.22667 0.13587,-0.34167l0.40657,-0.32526c0.11717,0.07715 0.25746,0.12204 0.40824,0.12204c0.26137,0 0.49123,-0.13491 0.62375,-0.33889l0.19241,-0.28703h0.12273v-0.18308l0.04091,-0.06104c1.04051,0.09328 2.03249,-0.09128 3.06374,-0.30177c0.01501,0.00796 0.03001,0.01594 0.04501,0.02392zM145.71792,104.19029c-3.51511,-0.29804 -4.43761,1.31432 -6.95489,3.63797l-1.59757,0.68125c0,0 -0.82432,0.20609 -1.58247,-0.14503c-1.92648,1.81706 -3.72882,3.64185 -5.01323,4.61823c-2.15355,2.69194 -5.0247,5.70694 -6.70466,9.09234c-0.19813,1.07626 -0.3083,2.2737 -0.3171,3.62123c-0.24853,0.74558 -0.44163,1.56795 -0.58565,2.44719c0.02475,0.13737 0.02569,0.319 -0.07403,0.48725c-0.48653,3.46456 -0.26152,7.71924 0.31396,11.62582c0.00138,-0.00046 0.00275,-0.0009 0.00413,-0.00136c7.03493,-0.59991 13.89111,-2.31646 20.98369,-2.65823c1.3713,-1.80513 3.32738,-3.40447 5.5074,-4.52634c1.09263,-0.93896 2.5779,-0.93897 2.5779,-0.93897l4.1502,0.01809c3.09502,0.61732 6.14644,1.51438 9.08501,2.66549c1.6249,0.6365 3.54851,0.76611 4.88125,1.89272c0.44278,0.3743 0.85066,0.74083 1.22507,1.09969c0.59877,0 1.30109,0 1.74071,0c4.9834,0 9.922,0.19697 14.85929,0.35312c0.06641,-2.96883 0.07396,-5.94649 0.07396,-8.93467c0,-7.05163 -0.46062,-16.72773 -8.01894,-20.31033c-5.48146,-3.90314 -10.7454,-6.20577 -17.1874,-3.72749c-2.22815,0.85717 -2.64612,3.19042 -5.04235,3.82843c-2.28524,-0.0675 -5.88802,-2.77138 -9.44064,-4.56669c-0.81755,-0.15436 -1.55805,-0.26055 -2.24719,-0.31666c-0.36209,0.07407 -0.63646,0.05694 -0.63646,0.05694zM133.47697,169.9715c-0.06392,0.1253 -0.13945,0.21479 -0.21992,0.27754c10.96033,5.37118 25.11449,11.17027 37.56936,7.88155c4.10031,-1.0827 7.90705,-3.69167 11.29265,-7.19676c2.94831,-4.46034 4.53695,-9.16752 4.55296,-14.8792c0.00061,-0.00347 0.0012,-0.00692 0.00181,-0.01039c-5.10883,-2.47376 -10.21767,-4.9475 -15.3265,-7.42126c-6.08549,3.19118 -18.01166,3.44419 -23.08149,1.33521c-0.77893,-0.32403 -1.47373,-0.67282 -2.08964,-1.04244c-6.91295,2.89858 -12.13652,8.40806 -17.26279,13.70484c0.86926,2.14318 1.96131,4.15833 3.42498,5.95265l0.81426,0.39839c0,0 0.66209,0.33777 0.32432,0.99988zM134.46138,106.88706c-0.54082,-2.16327 1.62246,-2.7041 1.62246,-2.7041l-0.34573,0.3683c3.44081,-3.17613 5.35705,-5.04241 10.25802,-4.81199c0,0 2.22551,0.1391 2.08641,2.36461c-0.00901,0.14411 -0.02677,0.2783 -0.0521,0.40326c0.22584,0.05975 0.45773,0.12682 0.69602,0.20158c2.85079,0.89427 6.2765,4.98188 9.13412,4.83255c1.96621,-0.43772 2.68001,-2.93292 4.68793,-3.73955c6.79292,-2.72888 12.72612,-0.29061 18.49023,3.8405c7.96054,4.14952 8.73873,13.80419 8.73873,21.58387c0,2.99968 -0.00383,5.99371 -0.0668,8.98041c2.60603,0.0768 5.21292,0.13553 7.82703,0.14126c0.09488,-0.69543 0.16885,-1.37244 0.22129,-2.02802c0.45583,-5.69793 -1.67861,-12.57574 -2.30098,-18.3225c-4.26804,-7.11124 -12.31039,-15.96722 -20.28173,-19.08639c-13.83136,-5.41221 -33.8074,-5.06408 -46.02698,4.39207c-0.4338,0.14839 -0.82237,0.39425 -1.13959,0.71147l-2.16228,2.16229l0.49106,0.49104c-4.46191,3.15111 -8.41831,7.49213 -10.80056,12.33819c-0.09147,-0.0217 -0.18464,-0.04695 -0.2795,-0.07595c-4.40768,6.41808 -5.41532,16.17786 -3.67311,23.93653c3.42699,-0.55059 6.84547,-1.17972 10.18002,-2.16213c-0.63306,-4.1571 -0.88744,-8.72427 -0.33909,-12.40465l-0.39067,-0.81425c-0.04143,-1.98593 0.47646,-3.86847 1.31383,-5.65433c1.28456,-7.55575 6.94018,-9.64105 12.18869,-14.68481c-0.02826,-0.08177 -0.05392,-0.16812 -0.07671,-0.25926zM142.15638,89.48222c0,0 0.01557,-0.00111 0.0442,-0.00185c1.58943,-0.37696 3.203,-0.6845 4.83169,-0.924c-5.16234,-1.68192 -10.23025,-4.16799 -14.35018,-7.5301c-2.82363,-2.35633 -13.29449,-7.97098 -14.129,-11.82262c0.0468,1.22578 0.06284,3.60245 -0.25439,4.60401c-1.31052,4.13749 -3.10616,8.69187 -3.86124,12.95504c-1.35939,7.67503 -2.4516,15.92669 -3.0079,24.05552c2.67798,-3.08432 5.76986,-6.43806 9.13276,-9.55538c2.02649,-2.1176 4.29932,-3.97064 6.76051,-5.56798c4.74596,-3.38795 9.79507,-5.82903 14.83357,-6.21264zM180.90215,89.8784c7.47063,2.91491 13.06766,10.91143 18.33213,17.91584c0.02002,-6.66011 0.16618,-13.076 1.01609,-19.67111c0.51367,-3.98595 -0.39781,-8.28328 -0.14427,-12.37625c-1.60585,2.25008 -4.46103,4.19465 -6.55067,5.55382c-4.86694,3.1656 -10.27239,5.77175 -15.86949,7.71804c1.13837,0.1967 2.22494,0.47289 3.21621,0.85967zM144.75616,147.91626c-1.00204,-0.83364 -1.68529,-1.74192 -2.09647,-2.68966c-5.70814,1.83569 -11.40085,3.48354 -17.05196,5.50089c0.82251,3.48253 1.56095,7.04208 2.72702,10.35977c4.91245,-5.05775 9.94514,-10.20531 16.42142,-13.171zM124.87912,147.80218c0.13015,0.48777 0.25563,0.97895 0.37793,1.47262c5.62994,-2.00213 11.30131,-3.64577 16.98705,-5.47591c-0.2428,-1.54169 0.13297,-3.13834 0.94442,-4.65221c-6.63677,0.45834 -13.08198,2.06861 -19.68514,2.56512c-0.02142,0.00724 -0.04284,0.01445 -0.06427,0.02164c0.39617,2.28356 0.9023,4.38889 1.44002,6.06874zM174.97937,145.10535c4.32473,0.00653 8.58135,0.80932 12.83584,1.61447c0.1812,-2.35305 0.29367,-4.71067 0.36336,-7.07371c-4.92448,-0.15596 -9.85027,-0.3519 -14.82091,-0.3519c-0.11359,0 -0.22719,0 -0.34078,0c1.91012,2.28414 2.37473,4.21925 1.83218,5.82522c0.07748,-0.01408 0.13031,-0.01408 0.13031,-0.01408zM123.45237,148.21965c-0.53393,-1.68015 -1.0396,-3.76701 -1.44232,-6.03196c-3.29388,0.98999 -6.66573,1.62575 -10.04778,2.17432c0.90028,3.21437 2.27059,6.14653 3.97538,8.85589c1.70429,-0.85977 3.38837,-1.68625 5.0361,-2.33848c0.95854,-0.37941 1.91848,-0.74433 2.87971,-1.09742c-0.12984,-0.52303 -0.26298,-1.04412 -0.40109,-1.56235zM126.59675,162.87209c0.20094,-0.20514 0.40183,-0.41089 0.60274,-0.61707c-1.30659,-3.50684 -2.10568,-7.29002 -2.99328,-11.01901c-0.89625,0.33066 -1.79139,0.6718 -2.68532,1.02564c-1.57166,0.62212 -3.16587,1.38793 -4.77499,2.1884c2.43249,3.56232 5.43513,6.73628 8.67585,9.66747c0.40063,-0.43569 0.79248,-0.85435 1.175,-1.24543zM174.97937,146.59192c0,0 -0.48816,0 -0.67326,-0.3956c-0.37105,0.5437 -0.86878,1.04193 -1.47022,1.49576c4.69677,2.27423 9.39355,4.54847 14.09034,6.8227c0.32889,-2.11193 0.57869,-4.22679 0.76837,-6.34524c-4.21552,-0.79949 -8.43278,-1.5847 -12.71523,-1.57761zM195.24509,147.97037c0.92696,-2.82682 1.62374,-5.58417 2.06294,-8.13668c-2.54943,-0.00858 -5.09205,-0.06663 -7.63383,-0.14168c-0.0688,2.44133 -0.1833,4.87755 -0.37377,7.30774c1.97815,0.36959 3.95749,0.71972 5.94466,0.97063zM153.07205,139.56029c-1.46619,0.46669 -4.34643,1.65188 -3.92063,3.35485c0.34875,1.39481 2.88172,-0.08917 4.313,0.04721c4.38606,0.41793 8.4472,0.15908 12.71212,0.03904c-1.15152,-0.29578 -2.23794,-0.83069 -3.35125,-1.25535c-2.3245,-0.88666 -4.69291,-1.70992 -7.1321,-2.19963zM191.66344,156.80857c1.1911,-2.45048 2.23039,-4.95396 3.1,-7.42216c-1.86673,-0.25269 -3.72693,-0.58704 -5.586,-0.93634c-0.20591,2.25271 -0.48241,4.50011 -0.85368,6.74139c1.11323,0.53904 2.22645,1.07808 3.33968,1.61711zM190.99921,158.13862c-0.95001,-0.46 -1.89999,-0.92 -2.85,-1.38c-0.05147,3.15995 -0.61288,6.06686 -1.61797,8.8027c1.64367,-2.3245 3.14021,-4.83437 4.46797,-7.4227zM127.6595,163.91154c-0.37038,0.37867 -0.74734,0.77792 -1.13086,1.19024c1.21096,1.0593 2.44907,2.08795 3.69782,3.09319c-0.96789,-1.38908 -1.7571,-2.87618 -2.42364,-4.43029c-0.04778,0.04899 -0.09554,0.09794 -0.14332,0.14686z" fill="#000000"/><path d="M127.79026,163.71629c0.66654,1.5541 1.50034,3.12799 2.46823,4.51707c-1.24875,-1.00525 -2.56406,-2.09373 -3.77502,-3.15303c0.38352,-0.41232 0.78925,-0.83734 1.15963,-1.21602c0.04778,-0.04892 0.09938,-0.09903 0.14716,-0.14803z" fill="#ff6f00"/><path d="M155.65816,139.51074c2.43919,0.4897 4.8926,1.35071 7.2171,2.23738c1.1133,0.42466 2.19904,0.96598 3.35056,1.26176c-4.26492,0.12004 -8.42264,0.38661 -12.8087,-0.03133c-1.43127,-0.13638 -3.96629,1.33944 -4.31504,-0.05537c-0.4258,-1.70297 2.45788,-2.91601 3.92407,-3.3827z" fill="#ffffff"/><path d="M188.34958,138.22792c-4.9373,-0.15615 -9.89842,-0.3204 -14.88181,-0.3204c-0.43963,0 -1.14719,0.00548 -1.74596,0.00548c-0.3744,-0.35886 -0.78275,-0.72492 -1.22553,-1.09922c-1.33274,-1.12661 -3.27088,-1.24364 -4.89577,-1.88014c-2.93857,-1.15111 -6.06631,-2.01854 -9.16133,-2.63586l-4.20663,-0.02379c0,0 -1.50895,-0.00939 -2.60158,0.92957c-2.18001,1.12187 -4.15503,2.70989 -5.52633,4.51502c-7.09258,0.34178 -13.9919,2.01123 -21.02683,2.61114c-0.00138,0.00046 -0.00275,0.00091 -0.00413,0.00137c-0.75216,-5.10584 -0.92438,-10.86179 0.32693,-14.61572c0.06867,-10.51923 6.34049,-11.99745 12.38629,-17.97072c2.33424,-0.72353 3.28409,-2.81677 4.89213,-4.08346c4.6546,-3.66648 13.25077,5.08754 17.3932,5.20992c2.39623,-0.63802 2.84695,-2.96043 5.0751,-3.8176c6.442,-2.47827 11.77562,-0.1084 17.25708,3.79474c7.55832,3.5826 8.03129,13.35998 8.03129,20.41161c0,2.98818 -0.01969,5.99924 -0.0861,8.96807z" fill="#ffa967"/><path d="M123.29491,141.69727c0.02143,-0.00719 0.04299,-0.01493 0.06441,-0.02217c6.60316,-0.49651 13.3247,-2.13792 19.96148,-2.59626c-0.81144,1.51388 -1.171,3.17151 -0.9282,4.7132c-5.68574,1.83014 -11.63145,3.55973 -17.26139,5.56186c-0.1223,-0.49367 -0.2587,-1.00572 -0.38885,-1.49349c-0.53772,-1.67985 -1.05128,-3.87958 -1.44745,-6.16314z" fill="#ffa967"/><path d="M128.23758,161.19977c-1.16607,-3.31769 -1.95145,-7.02634 -2.77395,-10.50886c5.65112,-2.01735 11.5899,-3.73678 17.29804,-5.57247c0.41118,0.94774 1.12286,1.89281 2.1249,2.72645c-6.47628,2.96569 -11.73654,8.29713 -16.64899,13.35488z" fill="#ffa967"/><path d="M174.70953,145.1707c0.54255,-1.60597 0.08396,-3.65773 -1.82616,-5.94187c0.11359,0 0.22843,-0.00245 0.34202,-0.00245c4.97064,0 10.16461,0.20353 15.08909,0.35949c-0.06969,2.36305 -0.18587,4.84892 -0.36706,7.20196c-4.25448,-0.80516 -8.78257,-1.62393 -13.1073,-1.63046c0,0 -0.0531,-0.00074 -0.13058,0.01334z" fill="#ffa967"/><path d="M187.83722,148.12756c-0.18968,2.11845 -0.45602,4.35401 -0.78491,6.46594c-4.69679,-2.27423 -9.65959,-4.67737 -14.35636,-6.95159c0.60144,-0.45382 1.1172,-0.98696 1.48825,-1.53066c0.1851,0.3956 0.67407,0.39446 0.67407,0.39446c4.28244,-0.00709 8.76343,0.82237 12.97895,1.62186z" fill="#ffa967"/><path d="M133.00708,168.75184l-0.81486,-0.40152c-1.46367,-1.79432 -2.55807,-3.8429 -3.42732,-5.98609c5.12627,-5.29677 10.40712,-10.91725 17.32007,-13.81584c0.61592,0.36962 1.3179,0.71315 2.09683,1.03718c5.06983,2.10898 17.17886,1.86753 23.26435,-1.32366c5.10883,2.47376 10.26236,5.01975 15.37119,7.4935c-0.00061,0.00347 -0.00118,0.00698 -0.00179,0.01044c-0.01601,5.71168 -1.60543,10.49914 -4.55374,14.95949c-3.3856,3.50509 -7.23484,6.18233 -11.33515,7.26503c-12.45487,3.28872 -26.85311,-2.58267 -37.81344,-7.95386c0.08047,-0.06275 0.15568,-0.15346 0.21959,-0.27877c0.33776,-0.6621 -0.32572,-1.00591 -0.32572,-1.00591z" fill="#ffa967"/><path d="M123.99379,149.83108c-0.96123,0.35309 -1.95825,0.77589 -2.91679,1.1553c-1.64773,0.65223 -3.48506,1.51174 -5.18935,2.37151c-1.70479,-2.70936 -3.15469,-5.85434 -4.05497,-9.06871c3.38205,-0.54856 6.97221,-1.23076 10.26609,-2.22075c0.40271,2.26495 0.96768,4.48488 1.50161,6.16503c0.13811,0.51824 0.26357,1.07459 0.39341,1.59763z" fill="#ff6f00"/><path d="M125.49193,164.24858c-3.24072,-2.93118 -6.44004,-6.31429 -8.87252,-9.87662c1.60912,-0.80047 3.31747,-1.63634 4.88913,-2.25845c0.89393,-0.35385 1.85012,-0.6873 2.74638,-1.01796c0.8876,3.72898 1.74981,7.75057 3.0564,11.25741c-0.20091,0.20619 -0.41479,0.42503 -0.61574,0.63017c-0.38252,0.39109 -0.80301,0.82976 -1.20364,1.26544z" fill="#ff6f00"/><path d="M186.46396,165.69388c1.00509,-2.73584 1.61318,-5.92254 1.66465,-9.08249c0.95001,0.46 2.00898,0.94769 2.95898,1.40769c-1.32776,2.58832 -2.97996,5.3503 -4.62363,7.6748z" fill="#ff6f00"/><path d="M188.20743,155.28402c0.37127,-2.24129 0.69087,-4.7106 0.89677,-6.96331c1.85907,0.3493 3.89724,0.70754 5.76397,0.96022c-0.86962,2.4682 -2.00938,5.22576 -3.20048,7.67624c-1.11323,-0.53903 -2.34704,-1.13411 -3.46027,-1.67315z" fill="#ff6f00"/><path d="M189.18387,147.092c0.19047,-2.43019 0.32352,-5.07043 0.39232,-7.51176c2.54178,0.07505 5.28761,0.13983 7.83704,0.1484c-0.4392,2.55251 -1.17808,5.54951 -2.10504,8.37632c-1.98717,-0.2509 -4.14617,-0.64337 -6.12432,-1.01296z" fill="#ff6f00"/><path d="M121.88921,140.62221c-3.33455,0.9824 -7.00686,1.76591 -10.43385,2.3165c-1.74221,-7.75867 -0.75329,-17.59143 3.65438,-24.00951c0.09486,0.029 0.18804,0.05455 0.27951,0.07625c2.38225,-4.84606 6.35153,-9.24712 10.81343,-12.39823l-0.49059,-0.49213l2.16871,-2.17479c0.31722,-0.31722 0.70885,-0.56815 1.14265,-0.71654c12.21958,-9.45615 32.42824,-9.82854 46.2596,-4.41633c7.97134,3.11917 16.05549,12.0745 20.32353,19.18574c0.62238,5.74676 2.74644,12.68332 2.29062,18.38125c-0.05245,0.65557 -0.1288,1.33829 -0.22368,2.03372c-2.61411,-0.00573 -5.48771,-0.19535 -8.09374,-0.27214c0.06297,-2.98669 0.0547,-5.95092 0.0547,-8.9506c0,-7.77967 -0.7718,-17.33499 -8.73235,-21.48451c-5.76411,-4.13111 -11.63117,-6.49714 -18.42409,-3.76826c-2.00791,0.80662 -2.69494,3.31302 -4.66115,3.75074c-2.85762,0.14933 -6.19188,-3.93962 -9.04266,-4.83389c-3.2337,-1.01439 -6.10017,-1.81602 -7.90112,-0.93185c-1.99823,0.98103 -2.87706,3.76261 -5.62181,4.72942c-6.15672,6.2352 -13.1104,7.78944 -13.02479,18.78248c-1.31508,3.94525 -1.14671,9.87742 -0.33729,15.19269z" fill="#ff6f00"/><path d="M199.3179,110.53296c-5.28539,-7.56708 -13.12898,-15.12761 -21.27155,-18.43116c-1.58766,-0.64414 -3.22608,-1.22925 -4.90707,-1.7287c7.14916,-2.01141 14.35672,-5.2125 20.48972,-9.20159c2.08964,-1.35917 4.96157,-3.29263 6.56742,-5.54272c-0.25353,4.09297 0.70704,8.45682 0.19337,12.44277c-0.93847,7.28234 -1.07012,14.51741 -1.07012,21.9328c0,0.14818 -0.00177,0.32721 -0.00177,0.52859z" fill="#ff6f00"/><path d="M147.17992,88.53909c-13.2785,1.95264 -25.79132,8.56237 -32.16256,20.30807c-1.37384,0.97455 -2.63139,2.09799 -3.76515,3.34964c0.5259,-8.53523 1.61154,-17.39862 3.04147,-25.47192c0.75509,-4.26317 2.61374,-8.90454 3.92426,-13.04203c0.31724,-1.00156 0.31588,-3.38658 0.26908,-4.61236c0.83452,3.85164 11.42217,9.45973 14.2458,11.81606c4.11993,3.36211 9.28475,5.97062 14.4471,7.65254z" fill="#ff6f00"/><path d="M139.26742,117.10636c-0.36029,-3.76133 2.09592,-7.5662 6.64239,-6.9683c6.85151,0.90103 9.19281,13.25498 4.76754,17.75505c-8.02489,8.16053 -11.98699,-5.04233 -11.43213,-10.6463c0,0 0.00525,-0.05246 0.0222,-0.14045zM144.86079,125.08902c0.1432,0.26063 0.30284,0.47121 0.48067,0.6153l-0.44148,-0.59707c-0.01307,-0.00608 -0.02614,-0.01216 -0.03919,-0.01824z" fill="#000000"/><path d="M162.51194,117.10636c-0.36029,-3.76133 2.09591,-7.5662 6.64239,-6.9683c6.85151,0.90103 9.19282,13.25498 4.76754,17.75505c-8.02489,8.16053 -11.98698,-5.04233 -11.43212,-10.6463c0,0 0.00525,-0.05246 0.02219,-0.14045zM168.10531,125.08902c0.1432,0.26063 0.30284,0.47121 0.48067,0.6153l-0.44149,-0.59707c-0.01307,-0.00608 -0.02614,-0.01216 -0.03919,-0.01824z" fill="#000000"/><path d="M138.92893,87.92588c1.76729,1.60662 0.16065,3.37391 0.16065,3.37391c-4.00709,4.32666 -10.51693,6.69022 -15.40073,10.23254c-1.10101,0.79859 -5.18368,3.84498 -5.82603,3.53469c-3.69188,-1.78336 -2.14561,-5.76255 -1.3838,-8.16546c1.98051,-6.24692 5.15169,-17.7035 13.37298,-13.16642c1.30213,0.65344 2.65019,1.23232 4.04165,1.66415l2.47283,0.32972c0.99887,0.11777 1.80904,0.85189 2.03972,1.81163c0.17168,0.09823 0.3464,0.22495 0.52272,0.38523zM121.54414,97.03719c0.26633,-0.15899 0.51207,-0.30109 0.71542,-0.42054c-0.17911,-0.04264 -0.3504,-0.10545 -0.51134,-0.18591c-0.06838,0.20623 -0.13639,0.40871 -0.20409,0.60644z" fill="#ffc395"/><path d="M180.86749,91.97201c0.23861,-0.73812 0.91769,-1.26455 1.70749,-1.29662l1.95753,-0.10931c1.11635,-0.2545 2.20757,-0.62684 3.26729,-1.06037c6.71553,-3.0596 8.50982,6.10872 9.68514,11.12307c0.4521,1.92881 1.42385,5.14002 -1.57654,6.31489c-0.52204,0.20442 -3.5375,-2.42878 -4.35209,-3.1209c-3.61331,-3.07008 -8.57184,-5.31453 -11.4509,-8.94636c0,0 -1.15241,-1.48166 0.32926,-2.63405c0.14783,-0.11497 0.29238,-0.20372 0.43283,-0.27035zM193.38445,99.94225c-0.13095,0.05334 -0.26896,0.09224 -0.41188,0.11485c0.15213,0.10586 0.33613,0.23202 0.53524,0.37265c-0.04113,-0.15902 -0.0822,-0.32178 -0.12335,-0.4875z" fill="#ffc395"/><path d="M200.65284,111.55499c-1.74122,1.39298 -14.43212,-6.09631 -14.43212,-6.09631l-0.87838,-1.10528c-3.47651,-4.98377 -7.70518,-8.86961 -12.83327,-12.07321c0,0 -1.89091,-1.18182 -0.70909,-3.07273c1.18182,-1.89091 3.07273,-0.70909 3.07273,-0.70909c5.64187,3.52773 10.28602,7.83302 14.12317,13.29756l0.70729,0.87681c0,0 12.6909,7.48929 10.94968,8.88227z" fill="#000000"/><path d="M128.61226,97.71749l0.70729,-0.87679c3.83714,-5.46453 8.48129,-9.76983 14.12316,-13.29756c0,0 1.89092,-1.18182 3.07273,0.70909c1.18182,1.89092 0.87658,5.25302 0.87658,5.25302c-5.1281,3.2036 -10.94244,4.90914 -14.41895,9.89291l-0.87837,1.10529c0,0 -20.81748,14.03019 -22.5587,12.63721c-1.74122,-1.39298 19.07625,-15.42318 19.07625,-15.42318z" fill="#000000"/></g><g stroke="none" stroke-width="0.5"><path d="M124.04647,193.7624c2.01613,-0.06966 4.22038,-1.19894 6.12638,-0.68528c0.30916,-0.19365 0.72631,-0.30131 1.28667,-0.21004c1.83548,0.29898 1.53652,2.13446 1.53652,2.13446c-2.07581,12.74403 -7.93724,29.55658 -4.69805,41.85803c0.82741,6.93118 1.25198,15.06869 -6.70245,16.43997c-0.33311,2.48835 -4.52902,5.33458 -7.18313,2.98512c-0.42365,-0.37503 -0.55011,-1.24379 -0.51934,-2.17997c-1.30985,1.7013 -3.6545,2.8679 -5.43093,1.71848c-2.47481,-1.60128 -1.06819,-3.94786 -1.0139,-5.8548c0.16372,-5.75093 -0.97682,-11.16228 -0.03893,-16.98479c2.10286,-12.91009 1.86637,-25.76234 5.19208,-38.68322l1.11622,-1.53017c0,0 1.26691,-1.36137 2.62828,-0.09447c0.20784,0.19342 0.35442,0.38904 0.4536,0.58168c2.23288,-0.27943 4.89371,0.58631 7.24697,0.505zM126.80864,194.82111c-2.25394,0.36026 -4.48352,0.43654 -6.74976,0.39948c-1.23516,-0.0202 -2.05205,-0.62651 -3.25857,-0.47935c-0.15626,0.34388 -0.35995,0.56274 -0.35995,0.56274l-0.23721,-0.0758c-3.30329,12.81249 -3.03688,25.5467 -5.12287,38.35333c-0.80748,4.89614 0.03248,9.43756 -0.10503,14.26781c-0.02528,0.88841 0.40269,2.64181 0.06639,3.86913c0.1757,-0.21782 0.34777,-0.41865 0.46716,-0.54085c1.21783,-1.24647 1.91702,-3.64548 3.65733,-3.73564c2.25394,-0.11678 2.76171,2.86809 2.42068,4.87545c0.32926,-0.65398 0.7197,-1.33826 1.01163,-1.6734c0.02609,-0.02996 0.05238,-0.0597 0.07888,-0.08924l-0.01891,-0.01202l1.10282,-1.73442c0.38117,-0.63068 1.11937,-0.99955 1.89126,-0.87382c0.75617,0.12318 1.33107,0.68621 1.50584,1.3851c1.43943,-3.90041 2.01795,-7.13583 1.48505,-11.76934c-3.35655,-12.83049 2.52908,-29.93095 4.68171,-43.14669c0,0 0.00215,-0.01316 0.00719,-0.03709c-0.79714,-0.04223 -1.73809,0.32906 -2.52363,0.45462z" fill="#000000"/><path d="M129.34731,194.3193c-0.00504,0.02393 -0.00718,0.0371 -0.00718,0.0371c-2.15264,13.21574 -8.03877,30.41073 -4.68222,43.24122c0.5329,4.63351 -0.0546,7.8708 -1.49402,11.77121c-0.17477,-0.69889 -0.75233,-1.2617 -1.5085,-1.38487c-0.77188,-0.12572 -1.51381,0.24323 -1.89498,0.87391l-1.10475,1.73434l0.01895,0.01202c-0.0265,0.02955 -0.05292,0.05928 -0.07901,0.08924c-0.29193,0.33515 -0.68391,1.01931 -1.01317,1.67329c0.34103,-2.00736 -0.17234,-4.99306 -2.42629,-4.87628c-1.74031,0.09016 -2.44411,2.48799 -3.66193,3.73445c-0.11939,0.1222 -0.29191,0.3229 -0.46761,0.54071c0.3363,-1.22733 -0.09387,-2.98148 -0.06859,-3.86989c0.13751,-4.83025 -0.71759,-9.38064 0.08988,-14.27679c2.08599,-12.80663 1.84496,-25.62733 5.14825,-38.43981l0.23761,0.07574c0,0 0.20442,-0.21896 0.36068,-0.56284c1.20652,-0.14715 2.02907,0.45881 3.26423,0.47901c2.26623,0.03706 4.50735,-0.0379 6.7613,-0.39817c0.78554,-0.12556 1.73022,-0.49582 2.52736,-0.4536z" fill="#ff6f00"/></g><g stroke="none" stroke-width="0.5"><path d="M136.81391,181.20405c0.64973,0.37463 0.27511,1.02436 0.27511,1.02436l-0.04742,0.08226c-0.02616,0.04454 -0.05138,0.08879 -0.0757,0.13275c0.27169,0.53385 0.37219,1.26506 -0.19043,2.14051c-0.20375,0.31704 -0.42642,0.54711 -0.65601,0.71042c-0.07591,0.36312 -0.16858,0.74183 -0.30885,1.14959c-1.24968,3.63281 -4.00269,5.94352 -4.75906,9.51955c0.93096,0.52029 1.38849,1.64575 1.03439,2.69241c-0.39943,1.18069 -1.68039,1.81401 -2.86107,1.41458l-2.69207,-0.91075c-1.58781,-0.53815 -3.10716,-1.17762 -4.60447,-1.853c-2.95266,-0.87262 -6.5713,-1.9534 -7.98123,-3.83232c-2.73588,-3.64591 0.03607,-6.79646 2.46112,-9.40235c4.67827,-5.02717 11.12782,-6.07053 17.45235,-3.96406l2.03365,1.23412c0.15353,-0.16699 0.47102,-0.39676 0.9197,-0.13806zM134.40129,185.93029c0.03859,-0.11361 0.07406,-0.22532 0.10697,-0.3354c-0.49894,-0.10594 -0.85153,-0.33255 -0.85153,-0.33255l-1.24266,-0.87871c-3.86184,-1.33133 -7.78958,-1.29747 -11.17924,1.33753c-0.50833,0.39516 -3.68465,3.37918 -3.89554,4.53579c1.48984,0.63879 2.9355,1.32866 4.3843,2.00722c2.47125,0.58823 5.07762,1.00214 6.81955,2.46292c0.03941,0.03305 0.07848,0.06645 0.11723,0.10018l0.01897,-0.03842l1.0085,0.49812c0.91468,-3.43728 3.48516,-5.74092 4.71345,-9.35668z" fill="#000000"/><path d="M129.71478,195.32909l-1.01267,-0.49572l-0.01922,0.03856c-0.03875,-0.03373 -0.07826,-0.0669 -0.11767,-0.09995c-1.74193,-1.46078 -4.4117,-1.89141 -6.88295,-2.47964c-1.4488,-0.67856 -2.9029,-1.39163 -4.39273,-2.03042c0.21089,-1.15661 3.39764,-4.17645 3.90597,-4.57161c3.38966,-2.635 7.39627,-2.66858 11.25812,-1.33724l1.24719,0.88569c0,0 0.35422,0.22993 0.85316,0.33587c-0.03291,0.11007 -0.06782,0.22312 -0.10641,0.33672c-1.22829,3.61576 -3.81809,5.98047 -4.73278,9.41775z" fill="#00ffa7"/></g><g stroke="none" stroke-width="0.5"><path d="M188.08014,180.32047l2.43064,-0.96736c6.58635,-1.02803 12.77343,1.07087 16.55285,6.8045c1.95912,2.97211 4.16998,6.53886 0.86715,9.68036c-1.70211,1.61897 -5.4499,2.08444 -8.50641,2.45511c-1.58861,0.41762 -3.19299,0.79615 -4.84808,1.06343l-2.80587,0.45152c-1.23059,0.19801 -2.38873,-0.63904 -2.58675,-1.86963c-0.09832,-0.611 0.05854,-1.20413 0.39203,-1.67076c-1.33909,-3.67086 -2.0853,-8.00864 -1.78506,-11.88648c-0.3419,-0.20522 -0.6612,-0.54713 -0.89694,-1.09774c-0.88826,-2.07469 1.18643,-2.96295 1.18643,-2.96295zM193.18461,194.69009l0.01234,0.04104c0.04381,-0.02684 0.08787,-0.05328 0.13222,-0.07934c1.96014,-1.15154 4.59905,-1.12732 7.13364,-1.29742c1.54129,-0.4288 3.08139,-0.86926 4.65655,-1.25204c-0.01609,-1.17557 -2.65334,-4.64519 -3.08907,-5.11921c-2.90553,-3.16083 -6.77322,-3.84585 -10.80242,-3.17365l-1.37123,0.66038c0,0 -0.23566,0.10089 -0.58214,0.15525c-0.25602,3.50789 0.38598,7.41359 1.5707,10.76845z" fill="#000000"/><path d="M190.80744,195.4263c-1.18472,-3.35486 -1.82942,-7.32264 -1.5734,-10.83053c0.34648,-0.05436 0.58371,-0.15731 0.58371,-0.15731l1.37681,-0.66626c4.0292,-0.6722 7.97278,0.02385 10.87831,3.18468c0.43572,0.47402 3.07906,3.98144 3.09515,5.15701c-1.57517,0.38278 -3.12672,0.84511 -4.66801,1.27391c-2.53459,0.1701 -5.24174,0.15165 -7.20188,1.30319c-0.04435,0.02606 -0.08877,0.05221 -0.13258,0.07905l-0.01257,-0.04123z" fill="#00ffa7"/></g><g stroke="none"><path d="M139.34115,328.3763c-1.12074,1.9613 -1.50563,4.66344 -3.07011,6.17801c-0.23859,0.23098 -0.50463,0.43434 -0.80489,0.60324c-1.90452,1.07132 -3.03778,1.17627 -4.10021,0.96554c-1.2226,-0.03489 -2.37428,-0.35293 -3.3918,-0.89085c-0.3853,-0.05699 -0.80699,-0.09564 -1.27585,-0.10594c-1.09049,-0.02396 -1.62841,1.473 -2.56547,2.03125c-2.26612,1.35003 -6.88855,1.01704 -9.10843,1.01704c-10.42658,0 -10.94703,-11.29676 -3.76562,-16.96353c3.71736,-2.93333 14.74202,-1.57481 17.16004,-1.58477c1.08785,-0.00448 6.31306,0.68377 7.10573,2.07093z" fill="#0099f6" stroke-width="0.5"/><g><path d="M174.46616,274.40613c-0.1712,0.10427 -0.3873,0.1996 -0.64301,0.28662c-0.98376,0.48937 -2.07844,0.76223 -3.23199,0.76223c-0.39222,0 -0.77763,-0.03154 -1.15418,-0.09242c-5.67927,0.38464 -14.05791,-0.04892 -16.51249,-0.26847c-1.3269,-0.11869 -2.93354,-0.02955 -3.875,-1.04885c-1.84091,-1.99312 -3.875,-4.52324 -3.875,-7.34194c0,-11.60109 12.90142,-8.25381 19.2325,-8.0299c0.06328,0.00224 3.78009,-0.25958 6.70806,0.01887c0.17245,0.01247 0.34336,0.03103 0.51254,0.05551c3.79017,0.54842 6.71358,4.06279 6.71358,8.31641c0,2.73061 -1.20473,5.15657 -3.07012,6.68882c-0.23859,0.25008 -0.50463,0.47026 -0.80489,0.65312z" fill="#0099f6" stroke-width="0.5"/><path d="M162.59114,336.04297v-78.66667h26.33333v78.66667z" fill="#0099f6" stroke-width="0"/><path d="M191.25782,318.29297c4.55631,1.13907 7.8763,4.04937 8.85311,8.51378c0.1288,0.58865 0.93835,0.9684 0.89689,1.56955c-0.05284,0.76617 -0.92054,1.26537 -1.1431,2.00041c-0.50878,1.68038 -0.88315,3.76965 -2.73191,4.78084c-5.13782,2.81018 -11.68711,0.83272 -17.54166,0.96875c-1.91544,0.04451 -5.54368,1.36156 -6.875,-0.63542c-1.37982,-2.06973 -2.68914,-4.18824 -3.92329,-6.34801c-0.8163,-1.42854 1.48545,-4.42782 1.71496,-6.0999c0.55358,-4.03314 1.61386,-7.95213 2,-12c0.21889,-2.29469 -0.21585,-5.94642 1.30208,-7.875c0.85993,-1.09258 5.80668,-3.82085 6.78125,-3.875c0.74072,-0.04115 6.41373,3.33949 6.78125,3.875c2.21356,3.22532 0.71604,11.83989 -0.10523,15.125z" fill="#0099f6" stroke-width="0.5"/><path d="M123.92448,337.70964v-78.66666h32.33334v78.66666z" fill="#0099f6" stroke-width="0"/><path d="M121.86511,260.60006c-0.55708,-1.39272 0.83563,-1.9498 0.83563,-1.9498l1.66667,-0.66667c3.04878,-1.1737 6.31408,-0.77395 9.55708,-0.77395c5.75783,0 11.79218,-0.0709 17.52613,-0.67771c13.12797,-1.373 26.05962,-0.32229 39.14055,-0.32229c0,0 1.5,0 1.5,1.5c0,0.30156 -0.06063,0.54248 -0.1575,0.73498c-0.02979,11.06923 -0.99929,21.93828 -0.99929,32.98176c0,4.37784 -0.60818,9.2108 -0.0145,13.54195c0.32157,2.34602 0.7624,4.53809 0.7645,6.95805c0.0022,2.54176 0.38434,5.74304 -0.61917,8.27509c-0.95864,-0.18748 -1.91219,-0.4613 -2.88161,-0.7069c0.62038,-1.52333 0.50078,-4.27917 0.50078,-5.06819c0,-7.68291 -0.75,-15.24743 -0.75,-23c0,-10.7932 0.92565,-21.41497 0.9958,-32.22233c-12.41269,-0.08165 -24.69684,-1.00998 -37.16549,0.31141c-5.27474,0.55239 -10.87789,0.68762 -16.17351,0.69419c-3.12146,0.00387 -6.97594,-0.65355 -9.90748,0.47789c-0.02939,11.07169 -0.99932,21.94301 -0.99932,32.98885c0,4.37784 -0.60818,9.2108 -0.0145,13.54195c0.32157,2.34602 0.7624,4.53809 0.7645,6.95805c0.0022,2.54176 0.38434,5.74303 -0.61917,8.27508c-0.95864,-0.18748 -1.91218,-0.4613 -2.8816,-0.7069c0.62038,-1.52333 0.50077,-4.27916 0.50077,-5.06818c0,-7.68291 -0.75,-15.24743 -0.75,-23c0,-10.79111 0.9253,-21.41086 0.99577,-32.21606c-0.31058,-0.11422 -0.61608,-0.36291 -0.81502,-0.86025z" fill="#000000" stroke-width="0.5"/><path d="M158.18435,274.42947c0.8279,0 2.23982,0 3.34313,0c0.21792,-0.2768 0.57425,-0.5031 1.15687,-0.5031c1.5,0 1.5,1.5 1.5,1.5c0,11.24837 -1,22.28422 -1,33.5c0,4.37784 -0.60818,9.2108 -0.0145,13.54195c0.32157,2.34602 0.76241,4.53809 0.7645,6.95805c0.00164,1.89861 0.21527,4.16521 -0.09496,6.24599c3.5342,-0.0752 7.05908,-0.72202 10.58411,-0.74211c0.01792,-0.00079 0.02767,-0.00079 0.02767,-0.00079h0.25c6.6983,0.00875 13.85089,0.30233 20.52566,-0.42302c1.71094,-1.01622 3.56555,-1.63656 4.70088,-3.36963c2.43624,-3.71888 -1.23301,-8.68696 -4.64101,-10.13889c-3.82852,-1.63108 -10.18564,-0.81846 -14.33553,-0.81846c0,0 -1.5,0 -1.5,-1.5c0,-1.5 1.5,-1.5 1.5,-1.5c4.59374,0 11.26108,-0.73187 15.50498,1.05578c5.15408,2.17104 9.39693,9.17021 6.01848,14.48687c-1.53045,2.40846 -3.91844,3.30964 -6.29912,4.63037c-5.61275,0.76391 -11.61055,0.66453 -17.39726,0.60265c-0.4977,0.30272 -1.09051,0.20391 -1.09051,0.20391c-0.68713,-0.1171 -1.37656,-0.18987 -2.06773,-0.22861c-0.30725,-0.00097 -0.61356,-0.00134 -0.91884,-0.00098h-0.25c0,0 -0.11983,0 -0.29175,-0.03387c-3.64934,0.02112 -7.33554,0.78387 -10.97508,0.78387l-1.17082,-0.40836c0,0 -0.72358,-0.36179 -0.84227,-1.08537c-0.24509,-0.0643 -0.49087,-0.12865 -0.73768,-0.19118c0.62038,-1.52333 0.50078,-4.27917 0.50078,-5.06819c0,-7.68291 -0.75,-15.24743 -0.75,-23c0,-10.55162 0.88468,-20.93939 0.98982,-31.4969c-0.66327,0 -1.32655,0 -1.98983,0h-0.00578c-0.08139,10.72957 -0.99421,21.28112 -0.99421,31.9969c0,4.37784 -0.60818,9.2108 -0.0145,13.54195c0.32157,2.34602 0.76241,4.53809 0.7645,6.95805c0.0022,2.54176 0.38434,5.74304 -0.61917,8.27509c-0.37515,-0.07337 -0.74952,-0.15996 -1.12437,-0.25291c0.03884,1.24406 -1.25986,1.46051 -1.25986,1.46051l-1.62288,0.26529c-2.78479,0 -5.31874,1.00412 -8.12372,1.00511c-4.44736,0.00157 -8.52441,-1 -13,-1c0,0 -0.45439,0 -0.86299,-0.25009c-6.89189,0.00444 -14.28629,0.35202 -21.11135,-0.57688c-2.38068,-1.32073 -4.76866,-2.2219 -6.29911,-4.63037c-3.37845,-5.31666 0.8644,-12.31583 6.01848,-14.48687c4.24391,-1.78765 10.91124,-1.05578 15.50498,-1.05578c0,0 1.5,0 1.5,1.5c0,1.5 -1.5,1.5 -1.5,1.5c-4.14989,0 -10.507,-0.81263 -14.33553,0.81846c-3.40801,1.45193 -7.07726,6.42 -4.64102,10.13889c1.13533,1.73307 2.98995,2.35341 4.70088,3.36963c6.67477,0.72535 13.82736,0.43178 20.52566,0.42302h0.25c0,0 0.44518,0 0.85049,0.24253c1.83328,-0.04235 3.90935,-0.24097 5.63979,0.02684c1.46672,0.22699 2.86025,0.91093 4.34268,0.98293c3.59037,0.17438 6.77498,-0.99719 10.29333,-0.99719l1.37712,-0.2347c0,0 0.1169,-0.01948 0.29047,-0.01463c0.2819,-1.50682 0.20613,-3.38085 0.20613,-4.00887c0,-7.68291 -0.75,-15.24743 -0.75,-23c0,-11.21823 1,-22.25128 1,-33.5c0,0 0,-1.5 1.5,-1.5c0.10638,0 0.20521,0.00754 0.29703,0.02156c0.123,-0.01846 0.20297,-0.01846 0.20297,-0.01846z" fill="#000000" stroke-width="0.5"/></g></g><g stroke="none" stroke-width="0.5"><path d="M114.77278,122.65284c0.02325,1.19977 2.31287,4.09688 4.5789,3.23633c1.46771,-0.55737 -0.50649,-6.06674 -0.6953,-10.49585l-0.70311,0.05021l-1.0128,0.12056l-1.76717,0.28043l-0.04377,-0.00083l-0.03956,0.0134l-0.63094,0.09011c-0.04411,0.07459 -0.09252,0.14757 -0.14502,0.21878c0.56118,2.09019 0.42032,4.50322 0.45876,6.48686zM120.69427,131.62724c-7.21205,0.5271 -13.8855,-3.71773 -13.92846,-8.77121c-0.02546,-2.99409 -2.95529,-7.41043 0.006,-9.19916c-0.00398,-0.05223 -0.006,-0.10483 -0.006,-0.15776c0,-0.45222 0.14701,-0.87993 0.40879,-1.26006l-1.78011,-0.72643l-0.19382,-0.55364l-0.05019,-0.03258l-0.41594,-0.44557l-0.08509,-0.17014l-0.16464,-0.13717l-0.20797,-0.29704l-0.09565,-0.30737l-0.20747,-0.27782l-0.20798,-0.5941v-0.06972l-0.04179,-0.063l-0.10283,-0.36717l-0.05936,-0.08478l-0.03904,-0.01594l-0.02788,-0.07966l-0.04989,-0.07125l-0.19955,-0.64128l-0.22311,-0.63733v-0.07967l-0.02496,-0.08015l0.02496,-0.02672v-3.52652l0.06988,-0.19965l-0.02965,-0.20469l0.40143,-2.00679l0.1987,-1.56078l0.08575,-0.17553l-0.00686,-0.18584l0.41595,-1.3367l0.05463,-0.07803l0.00408,-0.08719l0.38314,-0.95767l0.39004,-1.25347l0.0666,-0.09511l0.0069,-0.10622l0.59719,-1.42157l0.60135,-1.71779l0.25095,-0.33604l0.13992,-0.36748l2.65041,-3.37993l0.07831,-0.2237l0.29536,-0.3955l0.19363,-0.42637l1.03988,-1.18818l0.32894,-0.22653l0.23512,-0.27984l1.03987,-0.7426l0.24709,-0.10588l0.18172,-0.15971l0.37434,-0.20051l0.90468,-0.86143l0.49162,-0.28525l0.41532,-0.34154l2.07972,-1.03965l0.04368,-0.01194l0.03144,-0.02472l2.49568,-1.18817l0.39437,-0.10059l0.33951,-0.17509l3.07428,-0.87819l4.32258,-1.32297l0.36505,-0.04204l0.33018,-0.11891l6.37195,-1.02752l6.16467,-1.17399l0.19476,-0.00218l0.17863,-0.05547l6.21636,-0.73988l5.80047,-0.73971l0.23221,0.01134l0.22183,-0.05029l3.32758,-0.14853l0.19102,0.0252l0.18989,-0.02922l12.68636,0.29704l0.66771,0.13596l0.68797,0.067l0.8212,0.23458l5.17989,0.99593l0.26093,0.10373l0.29456,0.03507l4.78339,1.48522l0.23212,0.12736l0.27883,0.06364l4.3438,1.92034l4.13563,1.77205l0.27495,0.19636l0.34346,0.13015l2.02308,1.30029l3.68496,2.19298l0.14224,0.139l0.20319,0.09264l7.27907,5.49533l0.20391,0.25874l0.29728,0.20758l1.66379,1.93079l0.21345,0.48138l0.30268,0.45633l0.83189,2.97045l-0.01896,0.28445l0.09671,0.27625v4.30716l-0.06536,0.18667l0.03024,0.19119l-0.8319,4.45567l-0.04894,0.08814l0.00632,0.0947l-0.54617,1.95024v1.20212l-0.03907,0.1116l0.06066,0.08663l-0.30331,0.6065l-0.21873,0.62479l-0.11776,0.04807l-0.017,0.03397l-0.06646,0.23731l-0.70127,1.05725c0.71004,2.26396 -0.04207,5.28114 -0.05288,6.25373c-0.06459,5.81276 0.28993,13.45323 -8.64778,16.14072c-13.98867,4.20627 -12.71809,-9.78761 -12.54711,-15.44072c0.05698,-1.88422 -5.16835,-5.00635 -4.27126,-6.60375h-8.90143l-0.0539,-0.00962l-0.05426,0.00857l-7.64094,-0.14748h-16.85163l-5.1782,0.27392l-1.58844,0.25209l-0.30846,-0.00581l-0.29371,0.06755l-3.1196,0.14853l-0.13412,-0.01727l-0.13219,0.0236h-0.63222l-3.21625,0.22969l-0.04966,0.01266l-0.45113,0.20502l-1.60184,0.38132l-0.57742,0.20618l-0.68781,0.10914l-0.66049,0.17521l-1.80961,0.14358l-0.22578,0.02304c0.33369,4.9236 3.53013,16.32734 -6.36745,17.05072zM194.98229,105.0066c-0.08961,0.46897 -0.21056,1.18208 -0.40518,1.9805l0.00099,0.00021l0.30462,-0.01419l1.93252,0.25092h0.26292l0.26139,0.04668l0.26773,-0.02159l2.6299,0.25042l-0.01367,-0.20498l0.59846,-2.13691l0.77961,-4.17565v-3.83429l-0.6136,-2.19099l-0.48684,-0.56497c-1.57863,3.45829 -4.86929,7.21545 -5.51887,10.61485zM191.41763,93.95226c0.10805,-0.16552 1.41737,-2.80423 2.62357,-4.67448l-0.95615,-0.72186l-3.56119,-2.11933l-0.04615,-0.04509l-0.06907,-0.02618l-0.55964,-0.35969c-0.95088,1.37197 -3.20098,2.7382 -4.29324,3.62943c-3.1518,2.57173 -7.11704,4.486 -9.46028,7.61294c-2.40593,3.21059 -4.37082,5.89661 -5.13395,9.48373l2.42193,0.04675h13.77385c0.50756,-4.61263 3.93003,-10.78839 5.26031,-12.82623zM162.13843,106.09747c-1.41919,-7.20497 14.0816,-19.63993 20.31385,-23.11473l-2.83352,-1.25265l-4.24766,-1.3189l-5.12241,-0.98486l-0.20902,-0.08311l-0.23703,-0.02308l-0.38699,-0.11056l-1.40609,-0.03292c-0.04078,0.62776 -0.36505,1.20263 -0.88348,1.66083c0.08667,6.18846 -7.87593,15.81975 -9.64069,20.61163c-0.45515,1.23588 -0.54119,3.36162 -1.10769,5.18084h5.55783c0.04384,-0.18408 0.1123,-0.36218 0.20291,-0.53249zM148.56842,103.69664c0.48412,-6.65693 5.91411,-14.38614 9.48459,-20.54198c0.28362,-0.48898 1.13504,-2.63352 1.82225,-4.16847l-2.25259,-0.05275l-2.90866,0.12983l-5.59779,0.71386l-0.02377,-0.00116l-0.02184,0.00679l-4.9704,0.59159c-0.86193,3.42964 -3.25757,7.85636 -3.50872,8.42408c-1.04175,2.35481 -1.03811,5.1502 -1.54613,7.59322c-0.7103,3.41577 0.10618,7.45975 -0.19892,10.88541l0.6764,-0.0322l1.57396,-0.24979l0.29372,0.00552l0.27901,-0.06578l5.61528,-0.29706l0.14902,0.01839l0.14672,-0.0262h0.76002c-0.03431,-1.0304 0.16793,-2.10939 0.22785,-2.93331zM131.11596,107.78786c-2.10103,-6.80488 -0.00959,-19.2411 3.56528,-25.7614l-3.9546,0.63772l-4.03015,1.23346l-0.04953,0.00572l-0.04067,0.02097l-2.73256,0.78058l-2.11099,1.00503l-1.51895,0.75932l-0.86442,0.82309l-0.44177,0.25634l-0.35893,0.31547l-0.60427,0.32366l-0.51628,0.3687l-0.46273,0.52872l-0.05445,0.15555l-0.25096,0.33603l-0.13992,0.36749l-2.65042,3.37994l-0.49424,1.41187l-0.04488,0.06009l-0.00444,0.06803l-0.58203,1.38552l-0.38433,1.23508l-0.05463,0.07803l-0.00408,0.08719l-0.38314,0.95767l-0.33438,1.07458l-0.18474,1.45125l-0.03461,0.07085l0.01082,0.07464l-0.37571,1.87817v2.84693l0.1093,0.35121l0.22891,0.34511l0.18928,0.6759l0.05458,0.15588l0.1171,0.08362l0.40636,0.48366l0.26581,0.10847l0.12475,0.35639l0.26466,0.31501l-0.08055,0.21092l0.19156,0.5472v0.44557l-0.09408,0.26871l0.67097,-0.09583l1.83019,-0.29046l0.1097,0.00207l0.10062,-0.03124l1.24783,-0.14853l0.13363,0.00763l0.12618,-0.03235l1.99561,-0.1425l7.19536,-0.73408l0.06387,0.00471l0.0602,-0.01597l1.16209,-0.0922l0.19326,-0.06901l0.2813,-0.04464l0.2431,-0.11048l1.36312,-0.32449l0.03588,-0.01708l0.02231,-0.03571l0.11421,-0.02929l0.00542,-0.00258l0.91145,-0.23246l0.42403,-0.10871c0.00617,-0.00695 0.0124,-0.01385 0.01865,-0.02076z" fill="#000000"/><path d="M191.22443,115.24778c0.52893,-0.48462 -1.41468,-1.45984 -1.41468,-2.12187c0,-0.22307 -0.03377,-0.44072 -0.10144,-0.64908l4.03634,0.07904l2.01097,0.25946l0.36665,-0.01649l0.35664,0.06356l0.36159,0.00057l1.25424,0.12091c-0.77217,5.36557 3.98282,15.0908 -2.61803,16.154c-7.52952,1.21279 -2.8752,-7.75852 -4.25227,-13.89009z" fill="#f1f1f1"/><path d="M114.26819,116.09113c0.0525,-0.07121 0.10467,-0.1453 0.14878,-0.21989l0.64059,-0.09249l0.04024,-0.01353l0.0444,0.00069l1.79569,-0.2835l1.02845,-0.12004l0.71337,-0.04903c0.18881,4.42911 2.1736,10.09646 0.70589,10.65384c-2.26603,0.86055 -4.6642,-2.05267 -4.68745,-3.25244c-0.03844,-1.98364 0.1312,-4.53343 -0.42997,-6.62362z" fill="#f1f1f1"/><path d="M161.89406,106.70608l-5.58056,-0.00853c0.5665,-1.81922 0.63599,-3.9547 1.09114,-5.19059c1.76477,-4.79188 9.79276,-14.56196 9.70609,-20.75042c0.51843,-0.4582 0.8497,-1.0336 0.89048,-1.66136l1.41445,0.03271l0.38932,0.11057l0.23847,0.02311l0.21031,0.08312l5.15421,0.98916l4.27327,1.32779l2.84932,1.26153c-6.23225,3.47481 -21.85322,16.04532 -20.43403,23.25029c-0.09061,0.1703 -0.15863,0.34852 -0.20246,0.53261z" fill="#ffb900"/><path d="M200.53024,94.31275l0.49513,0.56677l0.63926,2.20003l0.05134,3.90362l-0.84591,4.2486l-0.61984,2.14222l0.01304,0.20509l-2.66221,-0.24838l-0.27114,0.02141l-0.2648,-0.0469l-0.26627,-0.00032l-1.95676,-0.25541l-0.30783,0.01328l-0.00099,-0.0002c0.19462,-0.79842 0.30458,-1.5153 0.39418,-1.98427c0.64957,-3.39939 4.02416,-7.30724 5.60279,-10.76553z" fill="#ffb900"/><path d="M186.18874,106.85703l-13.86838,-0.01041l-2.43196,-0.05208c0.76313,-3.58712 2.68844,-6.32198 5.09437,-9.53257c2.34324,-3.12694 6.451,-5.13404 9.6028,-7.70576c1.09226,-0.89123 3.36128,-2.2525 4.31216,-3.62447l0.56427,0.36134l0.06959,0.02637l0.04658,0.04526l3.58816,2.13375l0.963,0.72724c-1.2062,1.87026 -2.49613,4.53318 -2.60418,4.6987c-1.33029,2.03784 -4.82885,8.32 -5.33641,12.93263z" fill="#ffb900"/><path d="M148.33472,106.71154l-0.76457,-0.00024l-0.14757,0.02614l-0.14993,-0.01844l-5.64511,0.2918l-0.28015,0.06547l-0.29509,-0.00593l-1.58016,0.24776l-0.67905,0.03124c0.3051,-3.42566 -0.5624,-7.50848 0.1479,-10.92426c0.50802,-2.44302 0.51467,-5.31829 1.55642,-7.6731c0.25116,-0.56772 2.70879,-5.02638 3.57072,-8.45602l5.00101,-0.59488l0.02197,-0.00678l0.02392,0.00116l5.62928,-0.71094l2.92255,-0.1264l2.2623,0.05604c-0.68721,1.53495 -1.53175,3.68233 -1.81537,4.17132c-3.57048,6.15584 -9.06697,14.03583 -9.55108,20.69276c-0.05991,0.82393 -0.2623,1.90291 -0.22799,2.93331z" fill="#ffb900"/><path d="M131.149,107.8815l-0.42655,0.10957l-0.91701,0.23424l-0.00547,0.00259l-0.11492,0.02948l-0.02254,0.03578l-0.03614,0.01716l-1.37166,0.32665l-0.24478,0.11084l-0.28303,0.045l-0.19454,0.06924l-1.16924,0.09338l-0.06058,0.01602l-0.06426,-0.00467l-7.23947,0.73385l-2.00629,0.14058l-0.12676,0.0322l-0.13434,-0.00779l-1.25375,0.14705l-0.10102,0.03114l-0.11022,-0.00222l-1.83769,0.28815l-0.67351,0.09494l0.09367,-0.26886l-0.00136,-0.44607l-0.19412,-0.54819l0.08019,-0.21107l-0.26686,-0.31592l-0.12654,-0.35717l-0.2673,-0.10915l-0.40981,-0.48531l-0.1179,-0.08402l-0.05539,-0.1563l-0.19276,-0.67776l-0.23121,-0.34644l-0.1112,-0.35236l-0.01363,-2.85686l0.36682,-1.88699l-0.01123,-0.07512l0.03432,-0.07119l0.17768,-1.46099l0.33003,-1.08295l0.3801,-0.96631l0.00384,-0.08809l0.05445,-0.07878l0.38264,-1.24835l0.58416,-1.40186l0.00464,-0.06881l0.0451,-0.06085l0.50168,-1.42806l2.68789,-3.41281l0.14344,-0.36921l0.25493,-0.33785l0.05582,-0.15613l0.46922,-0.53126l0.52215,-0.37067l0.61057,-0.32545l0.3631,-0.31651l0.44626,-0.25731l0.8736,-0.82463l1.53202,-0.76055l2.12671,-1.0051l2.74974,-0.77885l0.04088,-0.02095l0.04982,-0.00566l4.04914,-1.22917l3.96929,-0.63244c-3.57487,6.5203 -5.67305,19.09949 -3.57202,25.90437c-0.00626,0.00691 -0.01264,0.01388 -0.01881,0.02083z" fill="#ffb900"/></g></g></g></svg>